# xmcd
#
# Track frame offsets:
#	150
#	11859
#	26679
#	38290
#	51607
#	64540
#	76590
#	89026
#	98437
#	108980
#	120046
#	132288
#	146665
#	159485
#	169207
#	183186
#	195073
#	205714
#	217068
#	227879
#
# Disc length: 3177 seconds
#
# Revision: 1
# Processed by: cddbd v1.5.2PL0 Copyright (c) Steve Scherf et al.
# Submitted via: audiograbber 1.83.01
#
DISCID=fe0c6714
DTITLE=Wanda Jackson - The Famous Wanda Jackson CD15
DYEAR=2012
DGENRE=Country
TTITLE0=The Right To Love
TTITLE1=The Soldiers last Letter
TTITLE2=The Things I Might Have Been
TTITLE3=The Tip Of My Fingers
TTITLE4=The Window Up Above
TTITLE5=The Wrong Kind Of Girl
TTITLE6=There Stands The Glass
TTITLE7=There´s A Party Goin´ On
TTITLE8=There's A New Moon Over My Should
TTITLE9=These Empty Arms
TTITLE10=This Gun Don't Care
TTITLE11=This Land Is Your Land
TTITLE12=This Should Go On Forever
TTITLE13=This Times The Next Time
TTITLE14=Those Were The days
TTITLE15=To Tell You The Truth
TTITLE16=Today I Started Loving You again
TTITLE17=Together Again
TTITLE18=Tongue Tied
TTITLE19=Try A Little Kindness
EXTD=
EXTT0=
EXTT1=
EXTT2=
EXTT3=
EXTT4=
EXTT5=
EXTT6=
EXTT7=
EXTT8=
EXTT9=
EXTT10=
EXTT11=
EXTT12=
EXTT13=
EXTT14=
EXTT15=
EXTT16=
EXTT17=
EXTT18=
EXTT19=
PLAYORDER=
